<?xml version="1.0" standalone="no"?>
<!DOCTYPE svg PUBLIC "-//W3C//DTD SVG 20010904//EN"
 "http://www.w3.org/TR/2001/REC-SVG-20010904/DTD/svg10.dtd">
<svg version="1.0" xmlns="http://www.w3.org/2000/svg"
 width="100pt" height="100" viewBox="0 0 250.000000 300.000000"
 preserveAspectRatio="xMidYMid meet">
<metadata>
Created by potrace 1.10, written by Peter Selinger 2001-2011
</metadata>
<g transform="translate(0.000000,300.000000) scale(0.100000,-0.100000)"
fill="#000000" stroke="none">
<path d="M1585 2500 c-11 -5 -60 -9 -110 -9 -368 -4 -715 -223 -885 -561 -276
-546 -10 -1211 567 -1420 581 -210 1219 150 1345 759 16 78 19 122 15 236 -5
153 -23 239 -77 368 -91 220 -304 436 -524 531 -39 17 -87 43 -106 58 -19 15
-48 31 -63 37 -33 13 -133 13 -162 1z m175 -33 c46 -24 80 -74 80 -118 l0 -26
-52 13 c-67 18 -126 17 -213 -1 -98 -21 -94 -22 -83 28 20 89 69 127 164 127
44 0 73 -6 104 -23z m-250 -12 c0 -2 -9 -24 -19 -47 -25 -55 -44 -185 -36
-240 4 -30 0 -63 -14 -109 l-21 -66 -79 -32 c-44 -17 -106 -37 -138 -45 -156
-36 -206 -111 -223 -336 -19 -229 -11 -320 25 -320 8 0 15 -6 15 -12 0 -7 15
-43 33 -80 l33 -68 -53 0 -53 0 0 -65 0 -65 -62 -2 c-35 -1 -108 -2 -163 -2
l-100 -1 -36 73 c-77 156 -103 283 -96 471 6 166 28 256 97 396 163 330 477
531 868 554 12 0 22 -1 22 -4z m555 -178 c123 -83 241 -221 315 -367 30 -59
70 -163 70 -180 0 -4 -20 -15 -44 -24 -24 -9 -76 -39 -116 -66 l-72 -50 -21
27 c-91 117 -209 211 -344 275 -95 45 -120 67 -93 83 17 11 70 129 70 157 0
45 17 78 41 78 24 0 59 26 59 44 0 6 -13 22 -29 36 -19 16 -32 39 -37 63 l-7
39 74 -38 c41 -20 101 -55 134 -77z m-215 22 l45 -24 -119 -3 c-97 -2 -124 0
-154 15 -20 10 -38 24 -40 32 -4 11 16 13 109 9 96 -4 121 -8 159 -29z m-115
-48 c55 -3 100 -8 99 -11 -1 -3 -6 -36 -13 -74 -7 -38 -23 -90 -36 -116 -25
-50 -76 -100 -101 -100 -47 0 -115 53 -147 115 -11 20 -16 24 -17 12 0 -9 13
-42 29 -72 27 -51 32 -95 9 -95 -20 0 -88 41 -98 61 -14 25 6 128 28 146 13
10 12 14 -2 28 -9 10 -16 33 -16 56 0 74 36 104 63 53 l14 -26 12 31 13 30 32
-16 c20 -11 67 -19 131 -22z m-282 -302 c45 -43 99 -63 169 -64 52 0 72 4 95
21 26 19 30 20 51 6 19 -13 22 -23 21 -86 0 -39 -6 -91 -12 -116 -12 -43 -14
-45 -57 -52 -59 -9 -185 -9 -233 -1 -38 6 -39 8 -98 131 -32 69 -59 128 -59
132 0 6 78 48 93 49 4 1 18 -8 30 -20z m-79 -178 l66 -140 173 6 c94 3 176 9
181 13 5 5 11 61 14 124 2 64 7 116 9 116 19 0 62 -34 67 -52 3 -13 6 -91 6
-174 l0 -150 -92 -42 c-134 -59 -216 -79 -353 -87 l-120 -7 4 126 c4 147 -13
242 -59 325 -35 63 -36 68 -12 74 45 12 49 7 116 -132z m-136 58 c51 -84 64
-139 67 -284 2 -71 1 -112 -1 -90 -11 106 -26 199 -40 233 l-14 37 6 -45 c3
-25 10 -74 15 -110 4 -36 8 -90 9 -122 l0 -56 -107 -4 c-78 -2 -118 -8 -142
-20 l-34 -18 6 138 c10 249 50 348 158 391 35 14 41 10 77 -50z m773 -55 c55
-42 162 -152 179 -185 13 -24 -69 -82 -104 -73 -15 3 -34 -1 -50 -11 -24 -16
-27 -16 -73 10 l-48 27 0 122 c0 66 -3 136 -7 155 l-8 33 28 -17 c15 -10 52
-38 83 -61z m406 -138 c-26 -55 -141 -231 -159 -242 -10 -6 -68 14 -68 24 0 3
14 21 32 39 42 43 31 51 -17 13 l-38 -30 -22 22 -22 23 26 23 c82 73 277 199
289 188 2 -3 -7 -30 -21 -60z m62 -65 c23 -244 -43 -489 -183 -678 -46 -63
-46 -63 -96 -63 l-50 0 0 66 c0 57 12 101 75 289 65 194 83 235 140 326 36 57
71 123 77 147 17 58 25 37 37 -87z m-331 -134 c39 -42 6 -45 -37 -3 -33 32
-38 34 -52 20 -14 -13 -17 -13 -28 0 -10 12 -8 17 16 29 25 14 30 13 53 -3 14
-10 35 -29 48 -43z m-186 38 c28 -5 47 -19 74 -52 36 -43 37 -46 19 -59 -16
-12 -22 -9 -51 24 -39 44 -46 28 -8 -17 24 -29 27 -61 5 -61 -6 0 -25 18 -42
40 -41 51 -51 43 -14 -12 20 -30 25 -46 18 -57 -17 -26 -28 -22 -53 19 -14 22
-28 40 -32 40 -12 0 -10 -9 18 -56 23 -39 24 -45 9 -50 -10 -4 -26 3 -44 20
-25 24 -28 25 -43 10 -12 -12 -26 -15 -52 -10 -39 7 -54 27 -58 75 -1 17 -6
31 -10 31 -14 0 -20 -48 -8 -70 15 -28 3 -41 -41 -43 -31 -2 -35 1 -48 39 -25
70 -13 87 76 113 42 12 106 38 142 57 36 18 75 32 86 29 11 -2 37 -7 57 -10z
m163 -81 c13 -8 32 -14 42 -13 10 1 35 -5 55 -13 l37 -17 -23 -73 c-12 -40
-36 -111 -53 -158 -17 -47 -34 -98 -37 -113 -4 -16 -21 -41 -37 -57 -33 -29
-51 -101 -30 -114 15 -10 14 -46 -1 -46 -20 0 -58 74 -47 91 5 8 8 25 8 39 0
20 -3 18 -15 -15 -12 -30 -13 -48 -5 -74 18 -61 -10 -72 -35 -13 -13 30 -14
45 -5 81 15 56 7 64 -14 15 -13 -31 -14 -47 -6 -79 10 -39 2 -63 -17 -51 -19
11 -34 90 -23 119 13 34 13 37 3 37 -16 0 -31 -66 -25 -107 8 -60 -20 -60 -36
0 -11 37 -10 49 9 97 19 50 28 59 94 101 l73 47 22 118 c13 66 25 140 28 167
3 26 8 47 10 47 2 0 15 -7 28 -16z m-848 -30 c2 -7 -14 -14 -38 -17 -23 -3
-47 -11 -53 -17 -8 -9 -6 -11 9 -6 11 3 92 15 180 26 88 11 170 23 182 25 19
4 21 2 16 -33 -3 -21 1 -52 9 -72 l14 -34 -58 -28 c-132 -62 -296 -108 -388
-108 -37 0 -38 1 -74 75 -20 41 -39 95 -42 119 -6 43 -5 46 22 57 31 13 141
27 188 25 16 0 31 -6 33 -12z m789 -29 c-3 -8 -15 -67 -27 -130 l-21 -115 -67
-46 c-36 -26 -74 -56 -83 -68 -17 -21 -18 -21 -18 15 0 20 3 77 6 127 7 87 8
92 30 92 22 0 104 47 104 60 0 11 64 80 74 80 4 0 6 -7 2 -15z m-220 -96 c10
-17 -13 -36 -27 -22 -12 12 -4 33 11 33 5 0 12 -5 16 -11z m-63 -25 c4 -8 19
-14 32 -14 24 0 24 -1 19 -67 -3 -38 -7 -90 -10 -118 l-5 -50 -52 1 -52 2 4
66 3 66 -182 2 -181 3 123 52 c75 32 132 50 144 47 12 -3 35 3 55 15 37 23 87
20 102 -5z m-443 -189 l0 -55 -165 0 -165 0 0 55 0 55 165 0 165 0 0 -55z
m354 -2 l1 -53 -167 0 -168 0 0 55 0 55 166 -2 166 -3 2 -52z m-206 -137 l3
-56 -171 0 -170 0 0 53 c0 30 2 56 4 58 2 2 78 3 168 2 l163 -2 3 -55z m352 2
l0 -58 -167 0 -168 0 2 57 c1 32 2 58 2 58 1 0 75 0 166 0 l165 0 0 -57z
m-1050 -4 c0 -51 -2 -55 -22 -52 -12 2 -38 26 -60 56 l-39 52 61 0 60 0 0 -56z
m346 1 l0 -55 -168 0 -168 0 0 55 0 55 168 0 167 0 1 -55z m994 0 c0 -42 -4
-55 -15 -55 -24 0 -37 35 -24 67 8 23 25 42 37 43 1 0 2 -25 2 -55z m-1190
-135 c0 -88 -17 -84 -145 32 l-30 28 88 0 87 0 0 -60z m350 5 l0 -55 -167 0
-168 0 -1 55 0 55 168 0 168 0 0 -55z m342 0 l3 -55 -167 0 -168 0 0 55 0 55
164 0 164 0 4 -55z m231 35 c5 -21 31 -27 42 -9 5 7 14 4 26 -7 18 -16 20 -16
39 1 20 18 20 17 20 -28 l0 -47 -170 0 -170 0 0 55 0 55 104 0 c95 0 104 -2
109 -20z m213 -10 c8 0 17 7 20 15 5 11 22 15 65 15 32 0 59 -4 59 -9 0 -5
-24 -30 -54 -55 -48 -42 -58 -46 -105 -46 l-51 0 0 34 c0 21 6 36 15 40 8 3
15 13 15 23 1 17 1 17 11 1 5 -10 17 -18 25 -18z m-981 -155 c0 -25 -5 -45
-10 -45 -9 0 -143 75 -154 86 -2 2 34 4 80 4 l84 0 0 -45z m350 -10 l0 -55
-167 0 -168 0 0 55 0 55 168 0 167 0 0 -55z m345 0 l0 -55 -165 0 -165 0 0 55
0 55 165 0 165 0 0 -55z m245 29 c-82 -51 -155 -84 -190 -84 l-35 0 0 55 0 55
133 0 132 -1 -40 -25z m-775 -115 c0 -10 -16 -11 -47 -3 -36 10 -27 20 12 16
19 -2 35 -8 35 -13z m554 11 c-5 -5 -49 -19 -97 -29 l-87 -19 0 24 c0 22 4 23
78 27 42 1 86 4 97 5 12 1 16 -1 9 -8z m-204 -25 l0 -25 -115 0 c-129 0 -215
14 -215 36 0 11 29 14 165 14 l165 0 0 -25z"/>
<path d="M702 1373 c-2 -65 4 -93 20 -93 7 0 7 5 0 13 -6 7 -13 42 -15 77 l-3
65 -2 -62z"/>
<path d="M1494 2249 c-4 -7 -3 -14 4 -17 9 -3 9 -9 1 -23 -6 -12 -6 -25 -1
-36 8 -13 11 -7 17 26 7 44 -5 75 -21 50z"/>
<path d="M1645 2233 c17 -2 35 -9 40 -14 7 -7 0 -8 -20 -3 -27 7 -29 6 -16
-10 8 -9 20 -15 26 -12 7 2 17 0 23 -6 8 -8 14 -4 22 16 5 15 10 28 10 29 0 1
-26 3 -58 3 -31 1 -43 0 -27 -3z"/>
<path d="M1756 2204 c-10 -27 -7 -31 24 -26 24 3 28 7 20 17 -8 10 -7 14 7 18
10 3 4 5 -13 6 -21 1 -34 -5 -38 -15z"/>
<path d="M1540 2147 c0 -14 31 -47 43 -47 16 0 4 26 -18 43 -19 14 -25 15 -25
4z"/>
<path d="M1636 2119 c-15 -12 -25 -24 -22 -27 3 -2 12 1 21 8 8 7 22 10 30 6
9 -3 15 0 15 8 0 8 6 17 13 19 6 3 2 6 -9 6 -12 1 -33 -9 -48 -20z"/>
<path d="M1752 2110 c-10 -17 -10 -20 3 -20 8 0 15 5 15 11 0 5 5 7 11 3 7 -4
10 -1 7 6 -7 22 -22 22 -36 0z"/>
<path d="M1650 2072 c0 -5 25 -13 55 -19 39 -7 55 -7 52 1 -6 19 -107 36 -107
18z"/>
<path d="M1656 2032 c-6 -10 73 -26 82 -17 8 8 0 12 -40 19 -20 4 -39 3 -42
-2z"/>
</g>
</svg>
